HIERARCHY
ROOT hip
{
  OFFSET 5.70873 43.8894 -1.52928
  CHANNELS 6 Xposition Yposition Zposition Zrotation Xrotation Yrotation
  JOINT abdomen
  {
    OFFSET 0 5.99393 0.287273
    CHANNELS 6 Xposition Yposition Zposition Zrotation Xrotation Yrotation
    JOINT chest
    {
      OFFSET 0 6.65865 -0.856112
      CHANNELS 6 Xposition Yposition Zposition Zrotation Xrotation Yrotation
      JOINT neck
      {
        OFFSET 0 8.65624 -1.42685
        CHANNELS 6 Xposition Yposition Zposition Zrotation Xrotation Yrotation
        JOINT head
        {
          OFFSET 0 3.80999 -0.190247
          CHANNELS 6 Xposition Yposition Zposition Zrotation Xrotation Yrotation
          End Site
          {
            OFFSET 0 0 0
          }
        }
      }
      JOINT rCollar
      {
        OFFSET -1.4963 7.5744 -1.52136
        CHANNELS 6 Xposition Yposition Zposition Zrotation Xrotation Yrotation
        JOINT rShldr
        {
          OFFSET -5.47506 -0.905672 0.485692
          CHANNELS 6 Xposition Yposition Zposition Zrotation Xrotation Yrotation
          JOINT rForeArm
          {
            OFFSET -11.3069 -0.201091 0.618544
            CHANNELS 6 Xposition Yposition Zposition Zrotation Xrotation Yrotation
            JOINT rHand
            {
              OFFSET -9.61414 -0.254739 3.48553
              CHANNELS 6 Xposition Yposition Zposition Zrotation Xrotation Yrotation
              JOINT rThumb1
              {
                OFFSET 0.176263 -0.07068 1.26622
                CHANNELS 6 Xposition Yposition Zposition Zrotation Xrotation Yrotation
                JOINT rThumb2
                {
                  OFFSET -1.04683 -0.546484 1.82182
                  CHANNELS 6 Xposition Yposition Zposition Zrotation Xrotation Yrotation
                  JOINT rThumb3
                  {
                    OFFSET -0.993472 -0.621916 0.655506
                    CHANNELS 6 Xposition Yposition Zposition Zrotation Xrotation Yrotation
                    End Site
                    {
                      OFFSET -0.996134 -0.66263 0.644615
                    }
                  }
                }
              }
              JOINT rIndex1
              {
                OFFSET -2.64253 0.566363 2.4162
                CHANNELS 6 Xposition Yposition Zposition Zrotation Xrotation Yrotation
                JOINT rIndex2
                {
                  OFFSET -1.39394 -0.635138 0.899356
                  CHANNELS 6 Xposition Yposition Zposition Zrotation Xrotation Yrotation
                  JOINT rIndex3
                  {
                    OFFSET -0.622395 -0.856016 0.402182
                    CHANNELS 6 Xposition Yposition Zposition Zrotation Xrotation Yrotation
                    End Site
                    {
                      OFFSET -0.472476 -0.801802 0.34216
                    }
                  }
                }
              }
              JOINT rMid1
              {
                OFFSET -3.20814 0.514427 1.52547
                CHANNELS 6 Xposition Yposition Zposition Zrotation Xrotation Yrotation
                JOINT rMid2
                {
                  OFFSET -1.56545 -0.497974 0.68919
                  CHANNELS 6 Xposition Yposition Zposition Zrotation Xrotation Yrotation
                  JOINT rMid3
                  {
                    OFFSET -0.679943 -1.17582 0.444246
                    CHANNELS 6 Xposition Yposition Zposition Zrotation Xrotation Yrotation
                    End Site
                    {
                      OFFSET -0.343874 -0.941341 0.267611
                    }
                  }
                }
              }
              JOINT rRing1
              {
                OFFSET -3.47877 0.200518 0.597719
                CHANNELS 6 Xposition Yposition Zposition Zrotation Xrotation Yrotation
                JOINT rRing2
                {
                  OFFSET -1.28208 -0.53155 0.44672
                  CHANNELS 6 Xposition Yposition Zposition Zrotation Xrotation Yrotation
                  JOINT rRing3
                  {
                    OFFSET -0.710288 -0.970167 0.4032
                    CHANNELS 6 Xposition Yposition Zposition Zrotation Xrotation Yrotation
                    End Site
                    {
                      OFFSET -0.403228 -0.950952 0.378354
                    }
                  }
                }
              }
              JOINT rPinky1
              {
                OFFSET -3.42483 -0.278904 -0.240415
                CHANNELS 6 Xposition Yposition Zposition Zrotation Xrotation Yrotation
                JOINT rPinky2
                {
                  OFFSET -1.05787 -0.635999 0.156459
                  CHANNELS 6 Xposition Yposition Zposition Zrotation Xrotation Yrotation
                  JOINT rPinky3
                  {
                    OFFSET -0.42815 -0.754232 0.287187
                    CHANNELS 6 Xposition Yposition Zposition Zrotation Xrotation Yrotation
                    End Site
                    {
                      OFFSET -0.235717 -0.725605 0.279416
                    }
                  }
                }
              }
            }
          }
        }
      }
      JOINT lCollar
      {
        OFFSET 1.4963 7.5744 -1.52136
        CHANNELS 6 Xposition Yposition Zposition Zrotation Xrotation Yrotation
        JOINT lShldr
        {
          OFFSET 5.47506 -0.905672 0.485692
          CHANNELS 6 Xposition Yposition Zposition Zrotation Xrotation Yrotation
          JOINT lForeArm
          {
            OFFSET 11.3069 -0.201091 0.618544
            CHANNELS 6 Xposition Yposition Zposition Zrotation Xrotation Yrotation
            JOINT lHand
            {
              OFFSET 9.61414 -0.254739 3.48553
              CHANNELS 6 Xposition Yposition Zposition Zrotation Xrotation Yrotation
              JOINT lThumb1
              {
                OFFSET -0.176263 -0.07068 1.26622
                CHANNELS 6 Xposition Yposition Zposition Zrotation Xrotation Yrotation
                JOINT lThumb2
                {
                  OFFSET 1.04683 -0.546484 1.82182
                  CHANNELS 6 Xposition Yposition Zposition Zrotation Xrotation Yrotation
                  JOINT lThumb3
                  {
                    OFFSET 0.993472 -0.621916 0.655506
                    CHANNELS 6 Xposition Yposition Zposition Zrotation Xrotation Yrotation
                    End Site
                    {
                      OFFSET 0.996134 -0.66263 0.644615
                    }
                  }
                }
              }
              JOINT lIndex1
              {
                OFFSET 2.64253 0.566363 2.4162
                CHANNELS 6 Xposition Yposition Zposition Zrotation Xrotation Yrotation
                JOINT lIndex2
                {
                  OFFSET 1.39394 -0.635138 0.899356
                  CHANNELS 6 Xposition Yposition Zposition Zrotation Xrotation Yrotation
                  JOINT lIndex3
                  {
                    OFFSET 0.622395 -0.856016 0.402182
                    CHANNELS 6 Xposition Yposition Zposition Zrotation Xrotation Yrotation
                    End Site
                    {
                      OFFSET 0.472476 -0.801802 0.34216
                    }
                  }
                }
              }
              JOINT lMid1
              {
                OFFSET 3.20814 0.514427 1.52547
                CHANNELS 6 Xposition Yposition Zposition Zrotation Xrotation Yrotation
                JOINT lMid2
                {
                  OFFSET 1.56545 -0.497974 0.68919
                  CHANNELS 6 Xposition Yposition Zposition Zrotation Xrotation Yrotation
                  JOINT lMid3
                  {
                    OFFSET 0.679943 -1.17582 0.444246
                    CHANNELS 6 Xposition Yposition Zposition Zrotation Xrotation Yrotation
                    End Site
                    {
                      OFFSET 0.343874 -0.941341 0.267611
                    }
                  }
                }
              }
              JOINT lRing1
              {
                OFFSET 3.47877 0.200518 0.597719
                CHANNELS 6 Xposition Yposition Zposition Zrotation Xrotation Yrotation
                JOINT lRing2
                {
                  OFFSET 1.28208 -0.53155 0.44672
                  CHANNELS 6 Xposition Yposition Zposition Zrotation Xrotation Yrotation
                  JOINT lRing3
                  {
                    OFFSET 0.710288 -0.970167 0.4032
                    CHANNELS 6 Xposition Yposition Zposition Zrotation Xrotation Yrotation
                    End Site
                    {
                      OFFSET 0.403228 -0.950952 0.378354
                    }
                  }
                }
              }
              JOINT lPinky1
              {
                OFFSET 3.42483 -0.278904 -0.240415
                CHANNELS 6 Xposition Yposition Zposition Zrotation Xrotation Yrotation
                JOINT lPinky2
                {
                  OFFSET 1.05787 -0.635999 0.156459
                  CHANNELS 6 Xposition Yposition Zposition Zrotation Xrotation Yrotation
                  JOINT lPinky3
                  {
                    OFFSET 0.42815 -0.754232 0.287187
                    CHANNELS 6 Xposition Yposition Zposition Zrotation Xrotation Yrotation
                    End Site
                    {
                      OFFSET 0.235717 -0.725605 0.279416
                    }
                  }
                }
              }
            }
          }
        }
      }
    }
  }
  JOINT rThigh
  {
    OFFSET -4.17848 -1.02486 0.046356
    CHANNELS 6 Xposition Yposition Zposition Zrotation Xrotation Yrotation
    JOINT rShin
    {
      OFFSET 1.27155 -17.465 -0.237699
      CHANNELS 6 Xposition Yposition Zposition Zrotation Xrotation Yrotation
      JOINT rFoot
      {
        OFFSET 0.529163 -17.3815 -1.19582
        CHANNELS 6 Xposition Yposition Zposition Zrotation Xrotation Yrotation
        JOINT rToe
        {
          OFFSET -0.711591 -4.4863 4.0596
          CHANNELS 6 Xposition Yposition Zposition Zrotation Xrotation Yrotation
          End Site
          {
            OFFSET -0.869915 -1.10655 1.99006
          }
        }
      }
    }
  }
  JOINT lThigh
  {
    OFFSET 4.17848 -1.02486 0.046356
    CHANNELS 6 Xposition Yposition Zposition Zrotation Xrotation Yrotation
    JOINT lShin
    {
      OFFSET -1.27155 -17.465 -0.237699
      CHANNELS 6 Xposition Yposition Zposition Zrotation Xrotation Yrotation
      JOINT lFoot
      {
        OFFSET -0.529163 -17.3815 -1.19582
        CHANNELS 6 Xposition Yposition Zposition Zrotation Xrotation Yrotation
        JOINT lToe
        {
          OFFSET 0.711591 -4.4863 4.0596
          CHANNELS 6 Xposition Yposition Zposition Zrotation Xrotation Yrotation
          End Site
          {
            OFFSET 0.869915 -1.10655 1.99006
          }
        }
      }
    }
  }
}
MOTION
Frames:	4
Frame Time:	0.0333333
4.87625 14.4193 -18.3523 12.8006 10.1769 -55.1353 1.77636e-015 5.99393 0.287273 -0.214336 -4.6425 2.54187 1.77636e-015 6.65865 -0.856112 -0.222185 -9.29004 5.0916 0 8.65624 -1.42685 0.17383 0.714257 -4.39528 1.77636e-015 3.80999 -0.190247 6.57727 -0.317205 -2.25098 -1.4963 7.5744 -1.52136 -6.93188 -1.06529 30.815 -5.47506 -0.905672 0.485692 37.8716 -27.5402 56.7428 -11.3069 -0.201091 0.618544 19.135 -0.158971 40.6636 -9.61414 -0.254739 3.48553 -43.1135 -44.659 -36.7455 0.176263 -0.07068 1.26622 -27.0716 34.1213 37.4741 -1.04683 -0.546484 1.82182 3.31223 -2.9656 9.24488 -0.993472 -0.621916 0.655506 -4.3271 5.9388 -14.9479 -2.64253 0.566363 2.4162 13.4016 5.92008 -12.0724 -1.39394 -0.635138 0.899356 44.7396 8.15932 -10.1718 -0.622395 -0.856016 0.402182 45.8626 8.24909 -10.4911 -3.20814 0.514427 1.52547 7.10269 0.886165 -2.24131 -1.56545 -0.497974 0.68919 52.741 10.533 -13.0891 -0.679943 -1.17582 0.444246 15.4526 4.36311 -2.78812 -3.47877 0.200518 0.597719 14.3237 -1.13294 -5.51464 -1.28208 -0.53155 0.44672 21.365 6.41228 -5.10257 -0.710288 -0.970167 0.4032 22.9813 6.80617 -5.57298 -3.42483 -0.278904 -0.240415 -6.90716 -7.98177 -6.36677 -1.05787 -0.635999 0.156459 25.7521 8.21713 -6.21988 -0.42815 -0.754232 0.287187 15.2761 5.26324 -3.27305 1.4963 7.5744 -1.52136 2.96039 -2.02014 -17.7981 5.47506 -0.905672 0.485692 -54.6835 -0.500238 -50.8203 11.3069 -0.201091 0.618544 -8.6265 -17.6998 -47.815 9.61414 -0.254739 3.48553 2.76229 -22.8091 10.8367 -0.176263 -0.07068 1.26622 24.2782 38.4818 -35.502 1.04683 -0.546484 1.82182 -6.53182 -1.24813 -11.4632 0.993472 -0.621916 0.655506 6.45118 2.6672 11.8094 2.64253 0.566363 2.4162 -5.18973 4.48309 12.5249 1.39394 -0.635138 0.899356 -36.9452 6.74319 17.0315 0.622395 -0.856016 0.402182 -38.0065 6.76621 17.5558 3.20814 0.514427 1.52547 -1.4852 -0.683629 1.67107 1.56545 -0.497974 0.68919 -44.4869 8.35704 21.4002 0.679943 -1.17582 0.444246 -9.361 3.19918 3.99159 3.47877 0.200518 0.597719 -8.07659 -2.63756 5.99026 1.28208 -0.53155 0.44672 -14.781 5.15019 7.29481 0.710288 -0.970167 0.4032 -16.2802 5.55301 8.08463 3.42483 -0.278904 -0.240415 11.7678 -11.303 2.60142 1.05787 -0.635999 0.156459 -18.8959 6.82267 9.38287 0.42815 -0.754232 0.287187 -9.1883 3.76105 4.34949 -4.17848 -1.02486 0.046356 -62.8515 -30.1125 -24.8247 1.27155 -17.465 -0.237699 154.502 53.7384 -143.245 0.529163 -17.3815 -1.19582 -6.46555 52.1105 44.6177 -0.711591 -4.4863 4.0596 -13.5753 28.3871 -6.17306 4.17848 -1.02486 0.046356 64.3481 -38.2812 46.405 -1.27155 -17.465 -0.237699 168.886 55.3306 -167.767 -0.529163 -17.3815 -1.19582 14.7866 42.2499 -46.3611 0.711591 -4.4863 4.0596 12.8149 54.9417 13.1072 
4.92027 14.4357 -18.3807 12.9621 10.3618 -55.0446 -1.77636e-015 5.99393 0.287273 -0.206252 -4.80055 2.51108 0 6.65865 -0.856112 -0.201438 -9.60552 5.03155 0 8.65624 -1.42685 0.121739 0.167549 -4.37556 1.77636e-015 3.80999 -0.190247 6.81988 -0.243966 -2.3343 -1.4963 7.5744 -1.52136 -6.8636 -1.04456 30.707 -5.47506 -0.905672 0.485692 37.9727 -27.4406 56.5385 -11.3069 -0.201091 0.618544 19.1378 0.0865844 40.8817 -9.61414 -0.254739 3.48553 -43.2114 -44.7055 -36.9261 0.176263 -0.07068 1.26622 -27.0717 34.1213 37.4741 -1.04683 -0.546484 1.82182 3.31224 -2.9656 9.24491 -0.993472 -0.621916 0.655506 -4.32709 5.9388 -14.9479 -2.64253 0.566363 2.4162 13.4016 5.92006 -12.0724 -1.39394 -0.635138 0.899356 44.7396 8.15932 -10.1718 -0.622395 -0.856016 0.402182 45.8625 8.2491 -10.4911 -3.20814 0.514427 1.52547 7.10266 0.88616 -2.24129 -1.56545 -0.497974 0.68919 52.741 10.533 -13.0891 -0.679943 -1.17582 0.444246 15.4525 4.36311 -2.78812 -3.47877 0.200518 0.597719 14.3237 -1.13295 -5.51462 -1.28208 -0.53155 0.44672 21.365 6.4123 -5.10255 -0.710288 -0.970167 0.4032 22.9813 6.80617 -5.57298 -3.42483 -0.278904 -0.240415 -6.90718 -7.98177 -6.36677 -1.05787 -0.635999 0.156459 25.752 8.21713 -6.21986 -0.42815 -0.754232 0.287187 15.2761 5.26326 -3.27305 1.4963 7.5744 -1.52136 2.9118 -1.99338 -17.8101 5.47506 -0.905672 0.485692 -54.7255 -0.34547 -50.6054 11.3069 -0.201091 0.618544 -8.6615 -17.5575 -48.0091 9.61414 -0.254739 3.48553 2.83819 -22.8463 10.9489 -0.176263 -0.07068 1.26622 24.2782 38.4818 -35.502 1.04683 -0.546484 1.82182 -6.53183 -1.24813 -11.4632 0.993472 -0.621916 0.655506 6.45119 2.66718 11.8094 2.64253 0.566363 2.4162 -5.18974 4.4831 12.5249 1.39394 -0.635138 0.899356 -36.9452 6.74317 17.0315 0.622395 -0.856016 0.402182 -38.0065 6.76622 17.5559 3.20814 0.514427 1.52547 -1.48522 -0.683643 1.67108 1.56545 -0.497974 0.68919 -44.4869 8.35705 21.4002 0.679943 -1.17582 0.444246 -9.36102 3.19916 3.99159 3.47877 0.200518 0.597719 -8.0766 -2.63755 5.99025 1.28208 -0.53155 0.44672 -14.781 5.15018 7.29483 0.710288 -0.970167 0.4032 -16.2802 5.55303 8.08463 3.42483 -0.278904 -0.240415 11.7678 -11.303 2.60143 1.05787 -0.635999 0.156459 -18.8959 6.82266 9.38287 0.42815 -0.754232 0.287187 -9.18829 3.76105 4.34949 -4.17848 -1.02486 0.046356 -63.0121 -30.3254 -25.1446 1.27155 -17.465 -0.237699 154.619 53.5611 -143.265 0.529163 -17.3815 -1.19582 -6.19969 51.7671 44.0526 -0.711591 -4.4863 4.0596 -13.931 28.6144 -6.18743 4.17848 -1.02486 0.046356 64.6237 -38.738 46.6925 -1.27155 -17.465 -0.237699 168.963 55.1998 -167.98 -0.529163 -17.3815 -1.19582 14.3888 42.3502 -45.9565 0.711591 -4.4863 4.0596 12.7901 54.9312 12.9367 
4.95222 14.4681 -18.4016 13.1312 10.6964 -54.925 1.77636e-015 5.99393 0.287273 -0.154915 -5.01037 2.46357 0 6.65865 -0.856112 -0.0930758 -10.0229 4.9421 0 8.65624 -1.42685 0.067208 -0.415923 -4.37104 -1.77636e-015 3.80999 -0.190247 7.03007 -0.119345 -2.40793 -1.4963 7.5744 -1.52136 -6.68312 -1.02851 30.5171 -5.47506 -0.905672 0.485692 38.0019 -27.2141 56.2342 -11.3069 -0.201091 0.618544 19.0964 0.43594 41.2863 -9.61414 -0.254739 3.48553 -43.3366 -44.7948 -37.235 0.176263 -0.07068 1.26622 -27.0717 34.1213 37.4741 -1.04683 -0.546484 1.82182 3.31224 -2.96559 9.2449 -0.993472 -0.621916 0.655506 -4.3271 5.9388 -14.9479 -2.64253 0.566363 2.4162 13.4016 5.92008 -12.0724 -1.39394 -0.635138 0.899356 44.7396 8.15933 -10.1718 -0.622395 -0.856016 0.402182 45.8625 8.2491 -10.4911 -3.20814 0.514427 1.52547 7.10268 0.886163 -2.2413 -1.56545 -0.497974 0.68919 52.741 10.533 -13.0891 -0.679943 -1.17582 0.444246 15.4526 4.3631 -2.78813 -3.47877 0.200518 0.597719 14.3236 -1.13294 -5.51463 -1.28208 -0.53155 0.44672 21.365 6.4123 -5.10257 -0.710288 -0.970167 0.4032 22.9813 6.80616 -5.57297 -3.42483 -0.278904 -0.240415 -6.90719 -7.98174 -6.36677 -1.05787 -0.635999 0.156459 25.7521 8.21713 -6.21988 -0.42815 -0.754232 0.287187 15.2761 5.26326 -3.27306 1.4963 7.5744 -1.52136 2.8794 -1.96569 -17.835 5.47506 -0.905672 0.485692 -54.8068 -0.132841 -50.1783 11.3069 -0.201091 0.618544 -8.87198 -17.4053 -48.4836 9.61414 -0.254739 3.48553 2.91445 -22.8074 11.0783 -0.176263 -0.07068 1.26622 24.2782 38.4818 -35.502 1.04683 -0.546484 1.82182 -6.53182 -1.24813 -11.4632 0.993472 -0.621916 0.655506 6.45118 2.66718 11.8095 2.64253 0.566363 2.4162 -5.18974 4.48307 12.5249 1.39394 -0.635138 0.899356 -36.9452 6.74318 17.0315 0.622395 -0.856016 0.402182 -38.0065 6.76621 17.5558 3.20814 0.514427 1.52547 -1.4852 -0.683635 1.67107 1.56545 -0.497974 0.68919 -44.4869 8.35706 21.4002 0.679943 -1.17582 0.444246 -9.36103 3.19917 3.99161 3.47877 0.200518 0.597719 -8.07659 -2.63756 5.99024 1.28208 -0.53155 0.44672 -14.781 5.15019 7.29482 0.710288 -0.970167 0.4032 -16.2802 5.55303 8.08463 3.42483 -0.278904 -0.240415 11.7678 -11.303 2.60142 1.05787 -0.635999 0.156459 -18.8959 6.82266 9.38287 0.42815 -0.754232 0.287187 -9.1883 3.76105 4.34949 -4.17848 -1.02486 0.046356 -63.0349 -30.5144 -25.5366 1.27155 -17.465 -0.237699 154.678 53.4463 -143.207 0.529163 -17.3815 -1.19582 -5.74521 51.3832 43.2582 -0.711591 -4.4863 4.0596 -14.4466 28.8924 -6.22008 4.17848 -1.02486 0.046356 65.0523 -39.2438 47.0651 -1.27155 -17.465 -0.237699 169.045 55.085 -168.224 -0.529163 -17.3815 -1.19582 13.9811 42.391 -45.4691 0.711591 -4.4863 4.0596 12.7923 54.9433 12.8336 
4.96466 14.5149 -18.41 13.2662 11.1198 -54.7872 -1.77636e-015 5.99393 0.287273 -0.0672561 -5.23853 2.4076 0 6.65865 -0.856112 0.0881742 -10.4752 4.83956 0 8.65624 -1.42685 0.0104609 -0.969576 -4.38874 0 3.80999 -0.190247 7.22255 0.00520874 -2.46643 -1.4963 7.5744 -1.52136 -6.42415 -1.01756 30.2675 -5.47506 -0.905672 0.485692 37.9917 -26.9042 55.872 -11.3069 -0.201091 0.618544 19.055 0.860261 41.8065 -9.61414 -0.254739 3.48553 -43.4551 -44.9024 -37.5751 0.176263 -0.07068 1.26622 -27.0717 34.1213 37.4742 -1.04683 -0.546484 1.82182 3.31224 -2.9656 9.24491 -0.993472 -0.621916 0.655506 -4.3271 5.93881 -14.9479 -2.64253 0.566363 2.4162 13.4016 5.92008 -12.0724 -1.39394 -0.635138 0.899356 44.7396 8.15932 -10.1718 -0.622395 -0.856016 0.402182 45.8625 8.2491 -10.4911 -3.20814 0.514427 1.52547 7.10269 0.886183 -2.2413 -1.56545 -0.497974 0.68919 52.741 10.533 -13.0892 -0.679943 -1.17582 0.444246 15.4526 4.3631 -2.78813 -3.47877 0.200518 0.597719 14.3237 -1.13293 -5.51463 -1.28208 -0.53155 0.44672 21.365 6.41229 -5.10258 -0.710288 -0.970167 0.4032 22.9813 6.80619 -5.57297 -3.42483 -0.278904 -0.240415 -6.90718 -7.9817 -6.36676 -1.05787 -0.635999 0.156459 25.752 8.21714 -6.21986 -0.42815 -0.754232 0.287187 15.2761 5.26327 -3.27306 1.4963 7.5744 -1.52136 2.89181 -1.9391 -17.8651 5.47506 -0.905672 0.485692 -54.9372 0.108792 -49.5988 11.3069 -0.201091 0.618544 -9.23649 -17.2393 -49.1425 9.61414 -0.254739 3.48553 2.97072 -22.717 11.1669 -0.176263 -0.07068 1.26622 24.2783 38.4819 -35.502 1.04683 -0.546484 1.82182 -6.53182 -1.24812 -11.4632 0.993472 -0.621916 0.655506 6.45118 2.66718 11.8095 2.64253 0.566363 2.4162 -5.18974 4.48305 12.5249 1.39394 -0.635138 0.899356 -36.9452 6.74318 17.0315 0.622395 -0.856016 0.402182 -38.0065 6.76621 17.5559 3.20814 0.514427 1.52547 -1.4852 -0.683636 1.67107 1.56545 -0.497974 0.68919 -44.4869 8.35704 21.4002 0.679943 -1.17582 0.444246 -9.36103 3.19916 3.99161 3.47877 0.200518 0.597719 -8.0766 -2.63756 5.99025 1.28208 -0.53155 0.44672 -14.781 5.15016 7.29484 0.710288 -0.970167 0.4032 -16.2802 5.55304 8.08464 3.42483 -0.278904 -0.240415 11.7678 -11.3031 2.60143 1.05787 -0.635999 0.156459 -18.8959 6.82265 9.38288 0.42815 -0.754232 0.287187 -9.1883 3.76106 4.34949 -4.17848 -1.02486 0.046356 -62.8799 -30.6465 -25.9268 1.27155 -17.465 -0.237699 154.672 53.4144 -143.092 0.529163 -17.3815 -1.19582 -5.23624 50.9677 42.3806 -0.711591 -4.4863 4.0596 -14.9963 29.1692 -6.25337 4.17848 -1.02486 0.046356 65.5423 -39.7063 47.4273 -1.27155 -17.465 -0.237699 169.12 55.0222 -168.472 -0.529163 -17.3815 -1.19582 13.5957 42.387 -44.9746 0.711591 -4.4863 4.0596 12.7945 54.9553 12.7304 
